<svg xmlns="http://www.w3.org/2000/svg" viewBox="0 0 57.73 79"><defs><style>.cls-1{fill:#0275d8;}</style></defs><title>logo-blue</title><g id="Layer_2" data-name="Layer 2"><g id="Layer_1-2" data-name="Layer 1"><path class="cls-1" d="M54,37,31.86,1.6a3.53,3.53,0,0,0-3-1.6,3.66,3.66,0,0,0-3,1.6L3.76,37a.1.1,0,0,1-.1.1,27,27,0,0,0,.1,27.3,28.88,28.88,0,0,0,50.2,0,27,27,0,0,0,.1-27.3A.1.1,0,0,0,54,37Zm-6.1,23.9a21.81,21.81,0,0,1-38,0,20.19,20.19,0,0,1-.2-20.3l19.2-30.5,19.2,30.6A20,20,0,0,1,47.86,60.9Z"/><path class="cls-1" d="M44.76,47.8a3.54,3.54,0,0,0-3.5,3.5A10.29,10.29,0,0,1,31,61.6a3.5,3.5,0,0,0,0,7,17.31,17.31,0,0,0,17.3-17.3A3.48,3.48,0,0,0,44.76,47.8Z"/></g></g></svg>